<svg width="720" height="213" viewBox="0 0 720 213" fill="none" xmlns="http://www.w3.org/2000/svg">
<path d="M0 37.8098C0 28.9733 7.16344 21.8098 16 21.8098H704C712.837 21.8098 720 28.9733 720 37.8098V196.81C720 205.646 712.837 212.81 704 212.81H16C7.16344 212.81 0 205.646 0 196.81V37.8098Z" fill="#ECF7FD"/>
<g clip-path="url(#clip0_276_56)">
<path d="M552.913 196.582C590.216 196.582 620.456 192.686 620.456 187.88C620.456 183.074 590.216 179.178 552.913 179.178C515.61 179.178 485.37 183.074 485.37 187.88C485.37 192.686 515.61 196.582 552.913 196.582Z" fill="#47525D"/>
<path d="M667.17 113.476L641.059 126.164L664.168 108.422C660.412 102.403 656.193 96.7021 651.55 91.3746L538.31 120.273L640.598 80.2111C635.924 75.9768 630.96 72.0921 625.744 68.5869L453.192 97.1231C434.871 120.645 424.884 149.864 424.87 179.982H684.608C684.597 156.624 678.582 133.682 667.17 113.476V113.476Z" fill="#FFF8E8"/>
<path d="M611.623 60.3488C593.907 51.4773 574.45 46.8803 554.739 46.9089C514.623 46.9089 478.757 65.5853 454.935 94.9298C495.728 85.7528 566.753 69.8668 611.623 60.3488Z" fill="#FFF8E8"/>
<path opacity="0.4" d="M637.168 73.1717C639.317 73.1717 641.059 71.3831 641.059 69.1768C641.059 66.9705 639.317 65.1819 637.168 65.1819C635.019 65.1819 633.277 66.9705 633.277 69.1768C633.277 71.3831 635.019 73.1717 637.168 73.1717Z" fill="#2F83DE"/>
<path opacity="0.4" d="M629.967 73.8869C631.474 73.8869 632.696 72.6322 632.696 71.0845C632.696 69.5368 631.474 68.2821 629.967 68.2821C628.459 68.2821 627.237 69.5368 627.237 71.0845C627.237 72.6322 628.459 73.8869 629.967 73.8869Z" fill="#2F83DE"/>
<path opacity="0.4" d="M452.968 88.1291C457.469 88.1291 461.117 84.3832 461.117 79.7624C461.117 75.1416 457.469 71.3958 452.968 71.3958C448.468 71.3958 444.819 75.1416 444.819 79.7624C444.819 84.3832 448.468 88.1291 452.968 88.1291Z" fill="#2F83DE"/>
<path opacity="0.4" d="M437.887 89.6275C441.044 89.6275 443.604 86.9998 443.604 83.7583C443.604 80.5169 441.044 77.8892 437.887 77.8892C434.73 77.8892 432.171 80.5169 432.171 83.7583C432.171 86.9998 434.73 89.6275 437.887 89.6275Z" fill="#2F83DE"/>
<path d="M688 179.714H422V180.248H688V179.714Z" fill="#47525D"/>
<path d="M657.864 179.714L637.147 148.119C637.147 148.119 668.522 159.365 664.961 179.714H657.864Z" fill="#47525D"/>
<path d="M658.677 179.714L679.394 148.119C679.394 148.119 648.02 159.365 651.58 179.714H658.677Z" fill="#2F83DE"/>
<path d="M476.243 35.5493C476.243 33.8098 473.827 32.3996 470.847 32.3996C470.788 32.3996 470.73 32.4011 470.671 32.4022C469.772 29.5728 465.523 27.4301 460.415 27.4301C456.069 27.4301 452.345 28.9812 450.777 31.1866C449.618 30.8718 448.424 30.7148 447.225 30.7198C442.655 30.7198 438.951 32.882 438.951 35.5493C438.951 37.9723 442.008 39.9781 445.993 40.3254C448.889 40.869 453.413 41.2188 458.497 41.2188C467.128 41.2188 473.443 39.5284 473.602 38.2578C475.183 37.7086 476.243 36.7015 476.243 35.5493Z" fill="#B5CEE9"/>
<path d="M606.635 36.8882C606.635 35.1487 604.219 33.7385 601.239 33.7385C601.18 33.7385 601.122 33.74 601.063 33.7411C600.164 30.9116 595.914 28.7689 590.807 28.7689C586.461 28.7689 582.737 30.3201 581.168 32.5255C580.009 32.2107 578.815 32.0537 577.617 32.0586C573.047 32.0586 569.343 34.2209 569.343 36.8882C569.343 39.3111 572.4 41.317 576.385 41.6642C579.281 42.2079 583.804 42.5577 588.888 42.5577C597.519 42.5577 603.835 40.8673 603.993 39.5967C605.575 39.0475 606.635 38.0403 606.635 36.8882Z" fill="#B5CEE9"/>
<path d="M679.394 14.2513C679.394 11.198 675.154 8.7228 669.923 8.7228C669.82 8.7228 669.717 8.72542 669.614 8.72735C668.036 3.76102 660.577 0 651.612 0C643.984 0 637.447 2.72271 634.694 6.59374C632.66 6.04108 630.564 5.76555 628.46 5.77425C620.439 5.77425 613.938 9.56957 613.938 14.2513C613.938 18.5042 619.303 22.0249 626.298 22.6344C631.381 23.5886 639.321 24.2027 648.244 24.2027C663.394 24.2027 674.479 21.2356 674.757 19.0053C677.533 18.0414 679.394 16.2736 679.394 14.2513Z" fill="#B5CEE9"/>
<path d="M570.691 77.6232C565.297 68.2651 554.625 67.829 554.625 67.829C554.625 67.829 544.226 66.4636 537.555 80.7161C531.337 94.0005 522.755 106.827 536.173 109.937L538.597 102.192L540.098 110.513C542.008 110.654 543.925 110.688 545.839 110.614C560.209 110.138 573.893 110.753 573.453 105.459C572.867 98.4214 575.882 86.6275 570.691 77.6232Z" fill="#2F2E41"/>
<path d="M535.407 159.576C535.249 160.605 535.019 161.622 534.719 162.617C534.381 163.592 533.86 164.493 533.552 165.478C532.568 168.616 533.932 172.115 536.11 174.538C537.999 176.63 540.437 178.117 543.13 178.818C545.096 179.325 547.139 179.399 549.164 179.469C554.771 179.664 560.523 179.839 565.837 177.989C567.515 177.39 569.137 176.633 570.681 175.729C571.168 175.491 571.598 175.144 571.938 174.713C572.343 174.121 572.395 173.353 572.391 172.629C572.379 170.188 571.897 167.76 572.012 165.322C572.075 163.971 572.321 162.622 572.2 161.276C572.032 159.747 571.409 158.309 570.414 157.158C569.42 156.007 568.103 155.2 566.644 154.847C565.137 154.514 563.574 154.695 562.039 154.847C558.056 155.24 554.055 155.423 550.054 155.397C545.965 155.37 541.901 154.729 537.833 154.663C536.63 154.643 536.654 155.024 536.271 156.219C535.918 157.319 535.63 158.44 535.407 159.576V159.576Z" fill="#2F2E41"/>
<path d="M547.01 99.3096C546.814 100.366 546.602 101.461 545.983 102.329C545.272 103.328 544.112 103.898 543.347 104.854C542.195 106.293 542.129 108.317 542.124 110.18C542.12 111.895 542.154 113.725 543.086 115.149C543.69 116.074 544.611 116.722 545.51 117.344C549.005 119.762 552.781 122.223 556.994 122.303C558.74 122.336 560.612 121.873 561.76 120.523C562.256 119.889 562.646 119.174 562.914 118.409C563.992 115.682 564.645 112.799 564.85 109.864C564.946 108.483 564.936 107.062 564.481 105.759C563.969 104.294 562.935 103.088 562.25 101.699C561.442 100.047 561.146 98.1804 561.403 96.3505C561.437 96.2217 561.427 96.0847 561.373 95.9629C561.317 95.8977 561.247 95.8468 561.168 95.8141C561.09 95.7814 561.005 95.7678 560.92 95.7744L552.566 95.1569C551.788 95.1172 551.013 95.0262 550.246 94.8844C549.796 94.7904 548.606 94.1337 548.177 94.3083C547.382 94.6316 547.173 98.4337 547.01 99.3096Z" fill="#FFB8B8"/>
<path opacity="0.1" d="M547.01 99.3096C546.814 100.366 546.602 101.461 545.983 102.329C545.272 103.328 544.112 103.898 543.347 104.854C542.195 106.293 542.129 108.317 542.124 110.18C542.12 111.895 542.154 113.725 543.086 115.149C543.69 116.074 544.611 116.722 545.51 117.344C549.005 119.762 552.781 122.223 556.994 122.303C558.74 122.336 560.612 121.873 561.76 120.523C562.256 119.889 562.646 119.174 562.914 118.409C563.992 115.682 564.645 112.799 564.85 109.864C564.946 108.483 564.936 107.062 564.481 105.759C563.969 104.294 562.935 103.088 562.25 101.699C561.442 100.047 561.146 98.1804 561.403 96.3505C561.437 96.2217 561.427 96.0847 561.373 95.9629C561.317 95.8977 561.247 95.8468 561.168 95.8141C561.09 95.7814 561.005 95.7678 560.92 95.7744L552.566 95.1569C551.788 95.1172 551.013 95.0262 550.246 94.8844C549.796 94.7904 548.606 94.1337 548.177 94.3083C547.382 94.6316 547.173 98.4337 547.01 99.3096Z" fill="black"/>
<path d="M555 100.459C561.769 100.459 567.257 94.825 567.257 87.8749C567.257 80.9247 561.769 75.2905 555 75.2905C548.231 75.2905 542.743 80.9247 542.743 87.8749C542.743 94.825 548.231 100.459 555 100.459Z" fill="#FFB8B8"/>
<path d="M548.73 116.061C549.368 116.747 550.045 117.425 550.882 117.827C551.735 118.189 552.65 118.368 553.572 118.353C555.781 118.417 558.177 118.001 559.714 116.37C561.695 114.268 561.63 110.877 563.183 108.425C563.308 108.202 563.478 108.011 563.683 107.863C563.943 107.717 564.238 107.648 564.534 107.662C566.495 107.643 568.204 108.949 569.746 110.194C570.437 110.751 571.145 111.329 571.58 112.112C571.885 112.723 572.094 113.38 572.199 114.058C572.964 117.893 573.212 121.814 573.458 125.72C573.594 127.878 573.73 130.038 573.72 132.2C573.686 139.324 572.074 146.328 570.47 153.259C570.263 154.152 569.98 155.15 569.189 155.578C568.837 155.741 568.458 155.836 568.072 155.858C563.479 156.412 558.876 156.967 554.252 157.04C552.447 157.068 550.643 157.023 548.84 156.905C548.53 156.901 548.222 156.846 547.929 156.742C547.53 156.546 547.188 156.247 546.935 155.875C544.433 152.639 544.286 148.165 544.302 144.034C544.341 133.933 544.692 123.84 545.356 113.755C545.411 112.922 545.423 111.912 544.839 111.257C545.891 112.986 547.354 114.585 548.73 116.061Z" fill="#D0CDE1"/>
<path d="M546.134 101.53C545.72 102.3 542.668 104.21 542.079 104.848C538.787 108.41 532.778 108.277 529.767 112.093C528.708 113.435 528.158 115.122 527.753 116.799C527.18 119.171 526.875 121.758 527.834 123.995C528.756 126.147 530.699 127.635 532.018 129.557C533.466 131.668 534.117 134.231 534.741 136.732C535.202 138.579 535.666 140.471 535.487 142.369C535.283 144.526 534.266 146.501 533.666 148.579C533.065 150.657 532.962 153.132 534.35 154.765C535.37 155.965 536.969 156.44 538.498 156.708C540.456 157.01 542.431 157.187 544.41 157.236C546.158 157.316 548.085 157.331 549.428 156.181C550.488 155.273 550.949 153.8 551.009 152.384C551.068 150.968 550.781 149.565 550.602 148.16C550.415 146.703 550.344 145.234 550.284 143.766C550.015 137.179 549.978 130.589 550.174 123.994C550.215 122.622 550.264 121.233 549.979 119.891C549.604 118.127 548.676 116.55 547.901 114.93C546.363 111.712 545.635 108.587 545.873 105.011C546.108 101.481 547.607 98.7924 546.134 101.53Z" fill="#2F83DE"/>
<path d="M563.345 101.798C563.975 102.464 566.118 102.683 566.92 103.112C567.674 103.469 568.462 103.749 569.27 103.947C572.196 104.814 574.979 106.125 577.526 107.838C578.056 108.156 578.524 108.571 578.907 109.062C579.356 109.703 579.519 110.503 579.671 111.277C580.064 113.274 580.458 115.296 580.37 117.331C580.276 119.492 579.642 121.585 579.014 123.649L576.664 131.363C574.909 137.121 573.144 142.935 572.651 148.947C572.378 152.279 572.499 155.632 573.012 158.934C573.064 159.266 573.107 159.646 572.894 159.901C572.739 160.058 572.535 160.155 572.318 160.173C571.184 160.355 570.086 159.761 569.059 159.236C565.918 157.631 562.566 156.505 559.108 155.893C560.459 153.889 561.502 151.682 562.199 149.352C562.595 147.872 562.907 146.37 563.133 144.853L564.226 138.362C564.671 135.989 564.984 133.592 565.164 131.183C565.246 130.279 565.195 129.367 565.011 128.479C564.76 127.633 564.425 126.816 564.013 126.04C562.211 122.192 561.366 117.801 562.075 113.595C562.385 111.754 562.988 109.91 562.737 108.06C562.495 106.281 562.746 104.898 562.302 103.137C560.476 95.9078 562.158 100.547 563.345 101.798Z" fill="#2F83DE"/>
<path d="M529.735 118.176C528.914 119.926 527.541 121.417 527.073 123.299C526.892 124.179 526.814 125.078 526.841 125.977C526.83 127.332 526.823 128.714 527.228 130.003C527.489 130.833 527.914 131.599 528.219 132.413C528.645 133.55 528.835 134.765 528.777 135.982C528.694 137.668 528.136 139.304 528.093 140.991C528.024 143.644 529.219 146.139 530.386 148.507C530.679 147.761 531.128 147.089 531.701 146.54C532.274 145.99 532.956 145.576 533.701 145.325C534.447 145.075 535.236 144.994 536.014 145.09C536.793 145.185 537.542 145.454 538.208 145.878C538.516 145.586 538.549 145.107 538.561 144.677C538.647 141.599 538.73 138.521 538.81 135.443C538.936 130.682 539.057 125.857 537.99 121.222C537.508 119.13 536.759 117.045 535.385 115.422C534.662 114.567 532.206 112.316 531.019 113.274C530.485 113.704 530.61 114.876 530.525 115.47C530.397 116.408 530.131 117.321 529.735 118.176V118.176Z" fill="#2F83DE"/>
<path d="M580.61 113.134C580.999 114.376 581.022 115.703 581.03 117.008C581.046 119.669 581.011 122.329 580.927 124.99C580.884 126.351 580.824 127.732 580.422 129.031C580.157 129.887 579.747 130.69 579.473 131.543C578.652 134.101 579.101 136.876 579.171 139.568C579.221 140.439 579.149 141.313 578.956 142.163C578.523 143.832 577.359 145.181 576.546 146.693C575.774 148.129 575.309 149.739 574.387 151.079C573.465 152.419 571.869 153.481 570.323 153.069C569.151 152.758 568.318 151.693 567.742 150.6C566.485 148.196 566.056 145.427 566.522 142.742C567.101 139.474 568.97 136.575 569.644 133.327C570.57 128.867 569.163 124.264 569.205 119.704C569.186 118.989 569.28 118.276 569.484 117.592C569.838 116.55 570.597 115.719 571.299 114.883C572.176 113.839 572.99 112.742 573.738 111.597C574.24 110.828 574.923 108.849 575.813 108.685C577.801 108.318 580.117 111.557 580.61 113.134Z" fill="#2F83DE"/>
<path d="M519.419 157.593C518.32 157.309 517.187 157.186 516.054 157.226C514.864 157.293 513.701 157.62 512.643 158.185C511.585 158.75 510.656 159.539 509.919 160.501C509.181 161.462 508.651 162.574 508.365 163.762C508.078 164.951 508.041 166.188 508.256 167.392C508.53 168.696 508.979 169.955 509.589 171.133C510.482 172.993 511.552 174.848 513.205 176.04C514.171 176.737 515.29 177.172 516.395 177.599L525.097 180.965C526.377 181.46 527.658 181.955 528.951 182.414C535.446 184.719 542.217 186.102 549.077 186.522C551.167 186.65 553.288 186.686 555.326 186.197C555.81 186.081 556.326 185.909 556.606 185.487C556.772 185.191 556.87 184.859 556.892 184.518L557.427 180.669C557.503 180.127 557.575 179.557 557.382 179.046C557.137 178.4 556.522 177.993 555.935 177.647C550.215 174.273 543.535 172.412 538.719 167.782C537.586 166.692 536.637 164.964 535.26 164.224C533.698 163.384 531.858 162.905 530.244 162.131C526.714 160.439 523.244 158.496 519.419 157.593Z" fill="#2F2E41"/>
<path opacity="0.1" d="M528.107 162.781C531.182 163.771 544.168 170.626 546.394 173.02C546.096 173.13 535.973 167.306 535.669 167.212C532.908 166.361 530.132 165.505 527.51 164.26C526.982 164.01 524.083 162.832 524.214 162.149C524.362 161.378 527.561 162.606 528.107 162.781Z" fill="black"/>
<path d="M566.48 188.518C566.654 188.531 566.827 188.479 566.967 188.371C567.028 188.29 567.073 188.197 567.1 188.098C567.126 188 567.133 187.896 567.119 187.795C567.115 186.047 567.11 184.299 567.105 182.551C565.637 181.833 563.994 181.603 562.381 181.381L554.858 180.349C555.031 180.372 553.682 183.676 553.889 184.117C554.253 184.894 557.04 185.583 557.826 185.95C560.56 187.225 563.401 188.628 566.48 188.518Z" fill="#FFB8B8"/>
<path d="M542.875 182.533C541.454 182.765 539.869 182.97 538.949 184.106C537.782 185.545 538.279 187.692 538.835 189.475C538.918 189.836 539.084 190.171 539.319 190.452C539.699 190.837 540.281 190.893 540.814 190.928C542.109 191.012 543.488 191.078 544.619 190.426C545.132 190.078 545.626 189.701 546.098 189.297C546.933 188.727 547.85 188.296 548.816 188.021C550.592 187.448 552.42 187.061 554.273 186.867C555.002 186.833 555.725 186.702 556.422 186.478C557.105 186.214 557.737 185.69 557.936 184.969C558.198 184.016 557.659 183.044 557.141 182.209C556.497 181.168 555.814 180.072 554.853 179.305C553.451 178.187 552.758 179.046 551.346 179.761C548.673 181.115 545.818 182.05 542.875 182.533V182.533Z" fill="#FFB8B8"/>
<path d="M539.163 183.847L530.143 181.11C529.047 180.777 527.931 180.441 526.787 180.442C525.643 180.443 524.446 180.828 523.705 181.722C523.005 182.565 522.805 183.717 522.631 184.809L522.258 187.147C522.068 188.334 521.878 189.545 522.049 190.736C522.219 191.927 522.812 193.116 523.841 193.693C525.089 194.392 526.619 194.051 528.011 193.758C530.825 193.168 533.687 192.853 536.559 192.817C537.638 192.804 538.771 192.818 539.725 192.299C540.859 191.682 541.537 190.377 541.654 189.065C541.831 187.068 541.183 184.46 539.163 183.847Z" fill="#2F2E41"/>
<path d="M570.025 181.462C571.194 181.252 572.226 180.57 573.346 180.167C574.923 179.6 576.632 179.6 578.303 179.606C578.917 179.609 579.57 179.623 580.08 179.972C580.816 180.475 581.005 181.481 581.13 182.38L581.885 187.802C582.027 188.822 582.168 189.869 581.947 190.874C581.725 191.878 581.058 192.847 580.087 193.106C578.908 193.421 577.751 192.647 576.638 192.139C573.855 190.869 570.619 191.194 567.717 190.245C567.179 190.068 566.602 189.799 566.382 189.264C566.283 188.963 566.247 188.644 566.278 188.327C566.328 186.585 565.97 184.205 566.481 182.539C566.94 181.041 568.72 181.462 570.025 181.462Z" fill="#2F2E41"/>
<path d="M589.111 155.411C590.913 154.947 592.782 154.816 594.628 155.024C596.103 155.19 597.623 155.612 598.7 156.66C600.011 157.936 600.432 159.909 600.467 161.763C600.525 165.456 599.332 169.055 597.092 171.945C596.545 172.676 595.895 173.319 595.163 173.852C594.373 174.359 593.531 174.776 592.652 175.094L573.164 182.986C568.037 185.062 562.892 187.144 557.545 188.513C557.399 188.586 557.24 188.627 557.078 188.636C556.916 188.644 556.753 188.619 556.601 188.563C556.448 188.506 556.308 188.418 556.189 188.305C556.07 188.192 555.974 188.055 555.907 187.903C554.199 185.399 552.767 182.709 551.636 179.882C551.582 179.814 551.545 179.735 551.528 179.65C551.51 179.565 551.513 179.477 551.536 179.393C551.559 179.31 551.601 179.233 551.659 179.17C551.717 179.106 551.789 179.058 551.868 179.029L565.652 170.898C566.64 170.315 567.638 169.725 568.458 168.913C569.054 168.32 569.541 167.623 569.898 166.854C570.184 166.242 570.211 164.796 570.576 164.343C570.933 163.899 572.155 163.864 572.72 163.69C573.516 163.439 574.296 163.137 575.054 162.784C578.137 161.367 580.883 159.31 583.839 157.651C585.497 156.678 587.268 155.925 589.111 155.411V155.411Z" fill="#2F2E41"/>
<path opacity="0.1" d="M581.297 161.483C578.929 163.309 575.863 164.988 573.516 166.862C572.715 167.502 559.362 175.21 559.173 176.233C561.363 176.612 575.311 166.593 577.307 165.594C579.302 164.594 581.071 163.184 582.824 161.785C583.271 161.428 585.164 160.356 583.882 159.958C583.16 159.733 581.831 161.118 581.297 161.483Z" fill="black"/>
<path d="M568.306 76.7211L557.763 71.0509L543.203 73.3704L540.19 87.0308L547.689 86.7347L549.784 81.716V86.652L553.244 86.5152L555.253 78.5255L556.508 87.0308L568.808 86.773L568.306 76.7211Z" fill="#2F2E41"/>
<path d="M565.953 104.743H543.265V132.857H565.953V104.743Z" fill="#47525D"/>
<path d="M532.494 153.641C533.015 154.44 533.626 155.221 534.462 155.651C534.996 155.901 535.578 156.023 536.164 156.007C536.751 155.991 537.326 155.837 537.845 155.558C538.883 154.987 539.733 154.112 540.287 153.045C541.433 150.967 541.67 148.482 541.527 146.099C541.384 143.716 540.889 141.369 540.669 138.992C540.51 137.265 540.497 135.526 540.484 133.791C540.444 133.426 540.519 133.058 540.697 132.739C540.951 132.383 541.415 132.285 541.827 132.16C544.14 131.454 545.675 129.229 546.775 127.024C547.51 125.552 548.149 123.944 548.008 122.296C547.866 120.648 546.712 118.989 545.11 118.821C543.789 118.682 542.569 119.544 541.616 120.493C539.211 122.904 537.666 126.074 537.229 129.495C537.019 131.17 537.079 132.891 536.635 134.517C535.688 137.99 532.723 140.119 531.246 143.243C529.618 146.686 530.516 150.595 532.494 153.641Z" fill="#FFB8B8"/>
<path d="M576.121 140.375C575.784 141.18 575.293 141.908 574.678 142.515C574.062 143.123 573.334 143.597 572.537 143.911C571.546 144.32 570.453 144.388 569.421 144.107C568.909 143.961 568.437 143.696 568.041 143.333C567.645 142.969 567.336 142.517 567.138 142.011C566.98 141.501 566.894 140.971 566.881 140.436C566.733 138.094 566.79 135.681 567.619 133.494C567.938 132.651 568.369 131.851 568.621 130.984C568.869 129.982 568.996 128.953 568.999 127.92L569.271 121.53C569.316 121.067 569.285 120.598 569.179 120.145C568.907 119.221 568.065 118.62 567.293 118.068C565.429 116.737 563.586 115.183 562.682 113.044C562.372 112.4 562.261 111.673 562.364 110.962C562.618 109.694 563.865 108.872 565.098 108.596C565.904 108.415 566.738 108.403 567.549 108.562C568.36 108.72 569.131 109.046 569.817 109.519C570.502 109.991 571.086 110.602 571.536 111.313C571.985 112.024 572.289 112.821 572.431 113.656C572.553 114.377 572.551 115.114 572.622 115.842C572.774 117.386 573.251 118.875 573.55 120.397C574.286 124.145 573.905 128.02 574.632 131.768C575.241 134.902 577.535 136.946 576.121 140.375Z" fill="#FFB8B8"/>
<path d="M435.726 179.451L435.204 179.441C435.406 173.487 436.025 167.555 437.056 161.692C439.311 149.14 443.061 140.896 448.202 137.19L448.502 137.628C436.492 146.286 435.732 179.121 435.726 179.451Z" fill="#47525D"/>
<path d="M442.245 179.323L441.724 179.313C441.735 178.72 442.061 164.743 447.42 160.88L447.719 161.319C442.577 165.026 442.248 179.181 442.245 179.323Z" fill="#47525D"/>
<path d="M451.469 137.677C452.909 137.677 454.077 136.478 454.077 134.999C454.077 133.52 452.909 132.322 451.469 132.322C450.029 132.322 448.861 133.52 448.861 134.999C448.861 136.478 450.029 137.677 451.469 137.677Z" fill="#2F83DE"/>
<path d="M450.177 160.703C451.617 160.703 452.785 159.505 452.785 158.026C452.785 156.547 451.617 155.348 450.177 155.348C448.737 155.348 447.569 156.547 447.569 158.026C447.569 159.505 448.737 160.703 450.177 160.703Z" fill="#2F83DE"/>
<path d="M441.029 139.282C441.519 142.496 440.241 145.371 440.241 145.371C440.241 145.371 438.169 143.034 437.679 139.82C437.189 136.606 438.467 133.732 438.467 133.732C438.467 133.732 440.539 136.068 441.029 139.282Z" fill="#47525D"/>
<path d="M449.554 147.088C446.557 148.144 443.577 147.353 443.577 147.353C443.577 147.353 445.457 144.851 448.454 143.796C451.451 142.74 454.431 143.531 454.431 143.531C454.431 143.531 452.551 146.033 449.554 147.088Z" fill="#47525D"/>
<path d="M449.65 167.48C448.294 167.918 446.849 167.982 445.461 167.666C446.342 166.514 447.529 165.648 448.879 165.172C450.229 164.697 451.684 164.633 453.069 164.987C452.161 166.111 450.983 166.971 449.65 167.48V167.48Z" fill="#47525D"/>
</g>
<path d="M48.5 57.9058C48.456 57.9058 48.4047 57.9131 48.346 57.9278C48.302 57.9425 48.2433 57.9571 48.17 57.9718L47.532 58.0818V69.6318L48.17 69.7418C48.2433 69.7565 48.302 69.7711 48.346 69.7858C48.4047 69.8005 48.456 69.8078 48.5 69.8078L48.632 69.8298C48.9987 69.9178 49.182 70.1451 49.182 70.5118V71.8098H42.89V70.5118C42.89 70.1451 43.0733 69.9178 43.44 69.8298L43.572 69.8078L43.902 69.7418L44.54 69.6318V64.8578H37.082V69.6318L37.742 69.7418C37.8153 69.7565 37.874 69.7711 37.918 69.7858C37.9767 69.8005 38.028 69.8078 38.072 69.8078L38.204 69.8298C38.5707 69.9178 38.754 70.1451 38.754 70.5118V71.8098H32.44V70.5118C32.44 70.1451 32.6233 69.9178 32.99 69.8298L33.122 69.8078C33.166 69.8078 33.21 69.8005 33.254 69.7858C33.3127 69.7711 33.3787 69.7565 33.452 69.7418L34.112 69.6318V58.0818L33.452 57.9718C33.3787 57.9571 33.3127 57.9425 33.254 57.9278C33.21 57.9131 33.166 57.9058 33.122 57.9058L32.99 57.8838C32.6233 57.7958 32.44 57.5685 32.44 57.2018V55.9038H38.754V57.2018C38.754 57.5685 38.5707 57.7958 38.204 57.8838L38.072 57.9058C38.028 57.9058 37.9767 57.9131 37.918 57.9278C37.874 57.9425 37.8153 57.9571 37.742 57.9718L37.082 58.0818V62.7458H44.54V58.0818L43.902 57.9718L43.572 57.9058L43.44 57.8838C43.0733 57.7958 42.89 57.5685 42.89 57.2018V55.9038H49.182V57.2018C49.182 57.5685 48.9987 57.7958 48.632 57.8838L48.5 57.9058ZM54.8092 57.2238C54.8092 57.4291 54.7579 57.6491 54.6552 57.8838C54.5672 58.0891 54.4425 58.2725 54.2812 58.4338C54.1052 58.6098 53.9219 58.7345 53.7312 58.8078C53.5112 58.8958 53.2839 58.9398 53.0492 58.9398C52.8145 58.9398 52.5872 58.8958 52.3672 58.8078C52.1912 58.7345 52.0152 58.6098 51.8392 58.4338C51.6779 58.2725 51.5532 58.0891 51.4652 57.8838C51.3772 57.6785 51.3332 57.4585 51.3332 57.2238C51.3332 56.9891 51.3772 56.7618 51.4652 56.5418C51.5385 56.3511 51.6632 56.1678 51.8392 55.9918C52.0005 55.8305 52.1765 55.7131 52.3672 55.6398C52.6312 55.5371 52.8585 55.4858 53.0492 55.4858C53.2399 55.4858 53.4672 55.5371 53.7312 55.6398C53.9512 55.7278 54.1345 55.8451 54.2812 55.9918C54.4572 56.1678 54.5819 56.3511 54.6552 56.5418C54.7579 56.7911 54.8092 57.0185 54.8092 57.2238ZM55.5132 69.8298C55.8799 69.9178 56.0632 70.1451 56.0632 70.5118V71.8098H50.0132V70.5118C50.0132 70.1451 50.1965 69.9178 50.5632 69.8298L50.6952 69.8078L51.0252 69.7418L51.6852 69.6318V62.7018L51.0252 62.5918C50.9519 62.5771 50.8859 62.5625 50.8272 62.5478C50.7832 62.5331 50.7392 62.5258 50.6952 62.5258L50.5632 62.5038C50.1965 62.4158 50.0132 62.1885 50.0132 61.8218V60.5238H54.3912V69.6318L55.0512 69.7418C55.1245 69.7565 55.1832 69.7711 55.2272 69.7858C55.2859 69.8005 55.3372 69.8078 55.3812 69.8078L55.5132 69.8298ZM75.0935 59.6658H73.8395C73.5609 59.6658 73.3849 59.5265 73.3115 59.2478C73.2675 58.9985 73.2309 58.6978 73.2015 58.3458H69.9675V69.6318L70.6055 69.7418C70.6789 69.7565 70.7375 69.7711 70.7815 69.7858C70.8402 69.8005 70.8915 69.8078 70.9355 69.8078L71.0675 69.8298C71.4489 69.9178 71.6395 70.1451 71.6395 70.5118V71.8098H65.3475V70.5118C65.3475 70.1451 65.5309 69.9178 65.8975 69.8298L66.0295 69.8078C66.0735 69.8078 66.1175 69.8005 66.1615 69.7858C66.2202 69.7711 66.2862 69.7565 66.3595 69.7418L66.9975 69.6318V58.3238H63.7635C63.7342 58.7051 63.6975 59.0131 63.6535 59.2478C63.5802 59.5265 63.4115 59.6658 63.1475 59.6658H61.8715V55.9038H75.0935V59.6658ZM88.4654 69.8298C88.8321 69.9178 89.0154 70.1451 89.0154 70.5118V71.8098H84.6374V64.6378C84.6374 63.9338 84.4761 63.3985 84.1534 63.0318C83.8454 62.6505 83.3687 62.4598 82.7234 62.4598C82.2687 62.4598 81.8287 62.5698 81.4034 62.7898C80.9634 63.0245 80.5747 63.3105 80.2374 63.6478V69.6318L80.8974 69.7418C80.9707 69.7565 81.0294 69.7711 81.0734 69.7858C81.1321 69.8005 81.1834 69.8078 81.2274 69.8078L81.3594 69.8298C81.7261 69.9178 81.9094 70.1451 81.9094 70.5118V71.8098H75.8594V70.5118C75.8594 70.1451 76.0427 69.9178 76.4094 69.8298L76.5414 69.8078C76.5854 69.8078 76.6294 69.8005 76.6734 69.7858C76.7321 69.7711 76.7981 69.7565 76.8714 69.7418L77.5314 69.6318V57.6418L76.8714 57.5318C76.7981 57.5171 76.7321 57.5025 76.6734 57.4878C76.6294 57.4731 76.5854 57.4658 76.5414 57.4658L76.4094 57.4438C76.0427 57.3558 75.8594 57.1285 75.8594 56.7618V55.4638H80.2374V61.7558C80.6627 61.3598 81.1467 61.0225 81.6894 60.7438C82.2174 60.4798 82.8407 60.3478 83.5594 60.3478C84.1461 60.3478 84.6887 60.4505 85.1874 60.6558C85.6127 60.8318 86.0087 61.1251 86.3754 61.5358C86.6834 61.9025 86.9254 62.3571 87.1014 62.8998C87.2774 63.5011 87.3654 64.0731 87.3654 64.6158V69.6318L88.0034 69.7418L88.3334 69.8078L88.4654 69.8298ZM95.1703 60.3478C95.8889 60.3478 96.5416 60.4578 97.1283 60.6778C97.6856 60.8831 98.1989 61.2205 98.6683 61.6898C99.0936 62.1151 99.4309 62.6505 99.6803 63.2958C99.9296 63.9558 100.054 64.6745 100.054 65.4518C100.054 65.6278 100.04 65.8038 100.01 65.9798C99.9809 66.1411 99.9516 66.2438 99.9223 66.2878C99.8929 66.3611 99.8269 66.4198 99.7243 66.4638C99.6656 66.4931 99.5629 66.5078 99.4163 66.5078H92.4423C92.5303 67.6665 92.8456 68.5171 93.3883 69.0598C93.9309 69.6025 94.6496 69.8738 95.5443 69.8738C95.9989 69.8738 96.3729 69.8225 96.6663 69.7198C96.9889 69.6171 97.2676 69.4998 97.5023 69.3678C97.6049 69.3091 97.7076 69.2578 97.8103 69.2138C97.9276 69.1551 98.0376 69.0965 98.1403 69.0378C98.3016 68.9351 98.4703 68.8838 98.6463 68.8838C98.7636 68.8838 98.8663 68.9058 98.9543 68.9498C99.0276 68.9791 99.0936 69.0378 99.1523 69.1258L99.9443 70.1158C99.6069 70.4971 99.2696 70.7978 98.9323 71.0178C98.5363 71.2671 98.1476 71.4578 97.7663 71.5898C97.3996 71.7071 96.9816 71.8025 96.5123 71.8758C96.1456 71.9345 95.7349 71.9638 95.2803 71.9638C94.4736 71.9638 93.7476 71.8391 93.1023 71.5898C92.4569 71.3405 91.8703 70.9518 91.3423 70.4238C90.8436 69.9251 90.4476 69.2945 90.1543 68.5318C89.8756 67.7985 89.7363 66.9258 89.7363 65.9138C89.7363 65.1805 89.8609 64.4618 90.1103 63.7578C90.3449 63.0978 90.7043 62.5038 91.1883 61.9758C91.6429 61.4771 92.2076 61.0811 92.8823 60.7878C93.5569 60.4945 94.3196 60.3478 95.1703 60.3478ZM95.2142 62.2838C94.4369 62.2838 93.8209 62.5111 93.3663 62.9658C92.9263 63.4058 92.6403 64.0365 92.5083 64.8578H97.6123C97.6123 64.5498 97.5609 64.2198 97.4583 63.8678C97.3703 63.5891 97.2236 63.3178 97.0183 63.0538C96.8276 62.8191 96.5783 62.6358 96.2703 62.5038C95.9329 62.3571 95.5809 62.2838 95.2142 62.2838ZM108.283 60.3258C108.855 60.3258 109.317 60.4505 109.669 60.6998L109.317 62.7458C109.302 62.8778 109.258 62.9658 109.185 63.0098C109.097 63.0685 108.994 63.0978 108.877 63.0978C108.774 63.0978 108.627 63.0758 108.437 63.0318C108.173 62.9731 107.916 62.9438 107.667 62.9438C107.095 62.9438 106.611 63.0978 106.215 63.4058C105.848 63.6845 105.511 64.1465 105.203 64.7918V69.6318L106.303 69.8298C106.669 69.9178 106.853 70.1451 106.853 70.5118V71.8098H100.825V70.5118C100.825 70.1451 101.008 69.9178 101.375 69.8298L102.475 69.6318V62.7018L101.375 62.5038C101.008 62.4158 100.825 62.1885 100.825 61.8218V60.5238H104.081C104.359 60.5238 104.55 60.5751 104.653 60.6778C104.755 60.7805 104.829 60.9565 104.873 61.2058L105.049 62.5698C105.445 61.8511 105.914 61.3011 106.457 60.9198C107.014 60.5238 107.623 60.3258 108.283 60.3258ZM115.731 60.3478C116.449 60.3478 117.102 60.4578 117.689 60.6778C118.246 60.8831 118.759 61.2205 119.229 61.6898C119.654 62.1151 119.991 62.6505 120.241 63.2958C120.49 63.9558 120.615 64.6745 120.615 65.4518C120.615 65.6278 120.6 65.8038 120.571 65.9798C120.541 66.1411 120.512 66.2438 120.483 66.2878C120.453 66.3611 120.387 66.4198 120.285 66.4638C120.226 66.4931 120.123 66.5078 119.977 66.5078H113.003C113.091 67.6665 113.406 68.5171 113.949 69.0598C114.491 69.6025 115.21 69.8738 116.105 69.8738C116.559 69.8738 116.933 69.8225 117.227 69.7198C117.549 69.6171 117.828 69.4998 118.063 69.3678C118.165 69.3091 118.268 69.2578 118.371 69.2138C118.488 69.1551 118.598 69.0965 118.701 69.0378C118.862 68.9351 119.031 68.8838 119.207 68.8838C119.324 68.8838 119.427 68.9058 119.515 68.9498C119.588 68.9791 119.654 69.0378 119.713 69.1258L120.505 70.1158C120.167 70.4971 119.83 70.7978 119.493 71.0178C119.097 71.2671 118.708 71.4578 118.327 71.5898C117.96 71.7071 117.542 71.8025 117.073 71.8758C116.706 71.9345 116.295 71.9638 115.841 71.9638C115.034 71.9638 114.308 71.8391 113.663 71.5898C113.017 71.3405 112.431 70.9518 111.903 70.4238C111.404 69.9251 111.008 69.2945 110.715 68.5318C110.436 67.7985 110.297 66.9258 110.297 65.9138C110.297 65.1805 110.421 64.4618 110.671 63.7578C110.905 63.0978 111.265 62.5038 111.749 61.9758C112.203 61.4771 112.768 61.0811 113.443 60.7878C114.117 60.4945 114.88 60.3478 115.731 60.3478ZM115.775 62.2838C114.997 62.2838 114.381 62.5111 113.927 62.9658C113.487 63.4058 113.201 64.0365 113.069 64.8578H118.173C118.173 64.5498 118.121 64.2198 118.019 63.8678C117.931 63.5891 117.784 63.3178 117.579 63.0538C117.388 62.8191 117.139 62.6358 116.831 62.5038C116.493 62.3571 116.141 62.2838 115.775 62.2838ZM129.403 62.1958C129.403 62.7971 129.366 63.4498 129.293 64.1538C129.234 64.7845 129.146 65.4665 129.029 66.1998H127.203C127.086 65.4665 126.998 64.7845 126.939 64.1538C126.866 63.4498 126.829 62.7971 126.829 62.1958V55.9038H129.403V62.1958ZM126.433 70.3138C126.433 70.0351 126.47 69.8151 126.543 69.6538C126.631 69.4485 126.748 69.2725 126.895 69.1258C127.027 68.9938 127.21 68.8765 127.445 68.7738C127.65 68.6858 127.87 68.6418 128.105 68.6418C128.325 68.6418 128.538 68.6858 128.743 68.7738C128.948 68.8618 129.124 68.9791 129.271 69.1258C129.418 69.2725 129.535 69.4485 129.623 69.6538C129.711 69.8445 129.755 70.0645 129.755 70.3138C129.755 70.5485 129.711 70.7685 129.623 70.9738C129.535 71.1645 129.418 71.3331 129.271 71.4798C129.124 71.6265 128.948 71.7438 128.743 71.8318C128.552 71.9198 128.34 71.9638 128.105 71.9638C127.87 71.9638 127.65 71.9198 127.445 71.8318C127.21 71.7291 127.027 71.6118 126.895 71.4798C126.748 71.3331 126.631 71.1645 126.543 70.9738C126.47 70.8125 126.433 70.5925 126.433 70.3138Z" fill="#21548A"/>
<path d="M33.728 123.468C33.728 123.648 33.89 123.81 34.07 123.81H34.772C34.97 123.81 35.114 123.648 35.114 123.468V118.014H42.422V123.468C42.422 123.648 42.566 123.81 42.764 123.81H43.466C43.646 123.81 43.808 123.648 43.808 123.468V111.552C43.808 111.372 43.646 111.21 43.466 111.21H42.764C42.566 111.21 42.422 111.372 42.422 111.552V116.808H35.114V111.552C35.114 111.372 34.97 111.21 34.772 111.21H34.07C33.89 111.21 33.728 111.372 33.728 111.552V123.468ZM46.1711 119.652C46.1711 122.028 47.6831 124.008 50.2031 124.008C51.6431 124.008 52.7411 123.45 53.2451 123.054C53.5511 122.82 53.4791 122.73 53.3171 122.478L53.1011 122.172C52.8851 121.848 52.7591 121.92 52.4711 122.118C52.0031 122.424 51.3191 122.802 50.2211 122.802C48.7091 122.802 47.5391 121.344 47.5031 119.958H53.5511C53.7311 119.958 53.9111 119.814 53.9291 119.598C53.9471 119.454 53.9651 119.238 53.9651 119.094C53.9651 116.916 52.3811 115.314 50.2031 115.314C47.6831 115.314 46.1711 117.312 46.1711 119.652ZM47.5211 118.896C47.6831 117.6 48.7991 116.52 50.2031 116.52C51.6251 116.52 52.5971 117.672 52.6331 118.896H47.5211ZM56.1501 123.414C56.1501 123.63 56.3301 123.81 56.5461 123.81H57.0861C57.2841 123.81 57.4821 123.63 57.4821 123.414V117.654C57.4821 117.654 58.1301 116.592 59.7321 116.592C60.1281 116.592 60.4341 116.736 60.6321 116.826C60.8301 116.916 61.0281 116.898 61.1181 116.628L61.3521 115.98C61.5501 115.404 60.5241 115.314 59.8941 115.314C58.1661 115.314 57.3381 116.376 57.3381 116.376L57.1941 115.782C57.1401 115.584 56.9961 115.494 56.8341 115.494H56.5461C56.3301 115.494 56.1501 115.692 56.1501 115.89V123.414ZM62.3078 119.652C62.3078 122.028 63.8198 124.008 66.3398 124.008C67.7798 124.008 68.8778 123.45 69.3818 123.054C69.6878 122.82 69.6158 122.73 69.4538 122.478L69.2378 122.172C69.0218 121.848 68.8958 121.92 68.6078 122.118C68.1398 122.424 67.4558 122.802 66.3578 122.802C64.8458 122.802 63.6758 121.344 63.6398 119.958H69.6878C69.8678 119.958 70.0478 119.814 70.0658 119.598C70.0838 119.454 70.1018 119.238 70.1018 119.094C70.1018 116.916 68.5178 115.314 66.3398 115.314C63.8198 115.314 62.3078 117.312 62.3078 119.652ZM63.6578 118.896C63.8198 117.6 64.9358 116.52 66.3398 116.52C67.7618 116.52 68.7338 117.672 68.7698 118.896H63.6578ZM77.241 113.352C77.799 113.352 78.231 112.902 78.231 112.38C78.231 111.804 77.799 111.372 77.241 111.372C76.701 111.372 76.269 111.804 76.269 112.38C76.269 112.902 76.701 113.352 77.241 113.352ZM76.611 123.414C76.611 123.63 76.791 123.81 77.007 123.81H77.547C77.745 123.81 77.943 123.63 77.943 123.414V115.89C77.943 115.692 77.745 115.494 77.547 115.494H77.007C76.791 115.494 76.611 115.692 76.611 115.89V123.414ZM83.0815 124.008C84.7735 124.008 85.9075 122.946 85.9075 121.632C85.9075 120.12 84.6655 119.58 83.2255 118.914C82.2175 118.446 81.6415 118.176 81.6415 117.438C81.6415 117.042 81.9475 116.52 82.8655 116.52C83.6395 116.52 84.2155 116.79 84.5755 117.006C84.7555 117.114 85.0255 117.096 85.1515 116.862L85.3315 116.52C85.4575 116.286 85.4215 116.106 85.2415 115.962C84.8455 115.674 83.9455 115.314 82.8655 115.314C80.9395 115.314 80.2915 116.628 80.2915 117.492C80.2915 118.914 81.5515 119.508 82.6495 120.048C83.8555 120.642 84.5035 120.966 84.5035 121.758C84.5035 122.406 83.9275 122.802 83.0815 122.802C82.0195 122.802 81.2995 122.28 81.0115 122.064C80.7775 121.902 80.6335 121.974 80.5255 122.172L80.2735 122.64C80.2015 122.784 80.2375 122.91 80.3275 123C80.7595 123.396 81.6955 124.008 83.0815 124.008ZM92.6549 116.646V121.704C92.6549 123 92.9789 124.008 94.5629 124.008C95.6789 124.008 96.5429 123.594 96.9029 123.342C97.1189 123.198 97.1549 123.072 97.0469 122.802L96.8849 122.424C96.7949 122.226 96.6869 122.064 96.3629 122.262C96.0209 122.478 95.4989 122.802 94.7249 122.802C94.2569 122.802 93.9869 122.478 93.9869 121.614V116.646H96.4349C96.6689 116.646 96.8489 116.466 96.8489 116.25V115.89C96.8489 115.656 96.6689 115.494 96.4349 115.494H93.9869V113.154C93.9869 112.938 93.8249 112.74 93.6089 112.758L93.0509 112.794C92.8529 112.812 92.6549 112.974 92.6549 113.19V115.494H91.5569C91.3049 115.494 91.1429 115.656 91.1429 115.89V116.25C91.1429 116.466 91.3049 116.646 91.5569 116.646H92.6549ZM98.9353 123.414C98.9353 123.63 99.1153 123.81 99.3313 123.81H99.8713C100.069 123.81 100.267 123.63 100.267 123.414V117.708C100.267 117.708 101.239 116.52 102.823 116.52C104.101 116.52 104.569 117.438 104.569 119.022V123.414C104.569 123.63 104.749 123.81 104.965 123.81H105.523C105.721 123.81 105.919 123.63 105.919 123.414V119.022C105.919 116.592 104.983 115.314 102.913 115.314C101.239 115.314 100.267 116.376 100.267 116.376V111.606C100.267 111.408 100.069 111.21 99.8713 111.21H99.3313C99.1153 111.21 98.9353 111.408 98.9353 111.606V123.414ZM108.116 119.652C108.116 122.028 109.628 124.008 112.148 124.008C113.588 124.008 114.686 123.45 115.19 123.054C115.496 122.82 115.424 122.73 115.262 122.478L115.046 122.172C114.83 121.848 114.704 121.92 114.416 122.118C113.948 122.424 113.264 122.802 112.166 122.802C110.654 122.802 109.484 121.344 109.448 119.958H115.496C115.676 119.958 115.856 119.814 115.874 119.598C115.892 119.454 115.91 119.238 115.91 119.094C115.91 116.916 114.326 115.314 112.148 115.314C109.628 115.314 108.116 117.312 108.116 119.652ZM109.466 118.896C109.628 117.6 110.744 116.52 112.148 116.52C113.57 116.52 114.542 117.672 114.578 118.896H109.466ZM122.51 123.414C122.51 123.63 122.69 123.81 122.906 123.81H123.446C123.644 123.81 123.842 123.63 123.842 123.414V111.606C123.842 111.408 123.644 111.21 123.446 111.21H122.906C122.69 111.21 122.51 111.408 122.51 111.606V123.414ZM127.374 113.352C127.932 113.352 128.364 112.902 128.364 112.38C128.364 111.804 127.932 111.372 127.374 111.372C126.834 111.372 126.402 111.804 126.402 112.38C126.402 112.902 126.834 113.352 127.374 113.352ZM126.744 123.414C126.744 123.63 126.924 123.81 127.14 123.81H127.68C127.878 123.81 128.076 123.63 128.076 123.414V115.89C128.076 115.692 127.878 115.494 127.68 115.494H127.14C126.924 115.494 126.744 115.692 126.744 115.89V123.414ZM133.214 124.008C134.906 124.008 136.04 122.946 136.04 121.632C136.04 120.12 134.798 119.58 133.358 118.914C132.35 118.446 131.774 118.176 131.774 117.438C131.774 117.042 132.08 116.52 132.998 116.52C133.772 116.52 134.348 116.79 134.708 117.006C134.888 117.114 135.158 117.096 135.284 116.862L135.464 116.52C135.59 116.286 135.554 116.106 135.374 115.962C134.978 115.674 134.078 115.314 132.998 115.314C131.072 115.314 130.424 116.628 130.424 117.492C130.424 118.914 131.684 119.508 132.782 120.048C133.988 120.642 134.636 120.966 134.636 121.758C134.636 122.406 134.06 122.802 133.214 122.802C132.152 122.802 131.432 122.28 131.144 122.064C130.91 121.902 130.766 121.974 130.658 122.172L130.406 122.64C130.334 122.784 130.37 122.91 130.46 123C130.892 123.396 131.828 124.008 133.214 124.008ZM138.745 116.646V121.704C138.745 123 139.069 124.008 140.653 124.008C141.769 124.008 142.633 123.594 142.993 123.342C143.209 123.198 143.245 123.072 143.137 122.802L142.975 122.424C142.885 122.226 142.777 122.064 142.453 122.262C142.111 122.478 141.589 122.802 140.815 122.802C140.347 122.802 140.077 122.478 140.077 121.614V116.646H142.525C142.759 116.646 142.939 116.466 142.939 116.25V115.89C142.939 115.656 142.759 115.494 142.525 115.494H140.077V113.154C140.077 112.938 139.915 112.74 139.699 112.758L139.141 112.794C138.943 112.812 138.745 112.974 138.745 113.19V115.494H137.647C137.395 115.494 137.233 115.656 137.233 115.89V116.25C137.233 116.466 137.395 116.646 137.647 116.646H138.745ZM148.809 119.634C148.809 122.01 150.681 124.008 152.985 124.008C155.289 124.008 157.161 122.01 157.161 119.634C157.161 117.294 155.289 115.314 152.985 115.314C150.681 115.314 148.809 117.294 148.809 119.634ZM150.123 119.634C150.123 117.942 151.347 116.52 152.985 116.52C154.623 116.52 155.829 117.942 155.829 119.634C155.829 121.362 154.623 122.802 152.985 122.802C151.347 122.802 150.123 121.362 150.123 119.634ZM160.019 123.414C160.019 123.63 160.199 123.81 160.415 123.81H160.955C161.171 123.81 161.351 123.63 161.351 123.414V116.646H163.817C164.033 116.646 164.213 116.466 164.213 116.25V115.89C164.213 115.656 164.033 115.494 163.817 115.494H161.351V114.18C161.351 112.938 161.801 112.236 162.755 112.236C163.457 112.236 163.835 112.488 164.285 112.812C164.519 112.974 164.663 112.992 164.807 112.794L165.149 112.362C165.239 112.236 165.203 112.02 165.077 111.894C164.699 111.534 163.925 111.03 162.791 111.03C160.991 111.03 160.019 112.11 160.019 114.18V115.494H158.687C158.471 115.494 158.291 115.656 158.291 115.89V116.25C158.291 116.466 158.471 116.646 158.687 116.646H160.019V123.414ZM172.48 123.792L170.878 127.59C170.752 127.878 170.896 128.094 171.22 128.094H171.868C172.012 128.094 172.174 127.968 172.228 127.842L177.43 115.962C177.556 115.692 177.43 115.494 177.106 115.494H176.44C176.278 115.494 176.134 115.584 176.08 115.728L173.272 122.334H173.236L170.878 115.728C170.824 115.584 170.68 115.494 170.518 115.494H169.762C169.438 115.494 169.33 115.674 169.438 115.944L172.48 123.792ZM178.587 119.634C178.587 122.01 180.459 124.008 182.763 124.008C185.067 124.008 186.939 122.01 186.939 119.634C186.939 117.294 185.067 115.314 182.763 115.314C180.459 115.314 178.587 117.294 178.587 119.634ZM179.901 119.634C179.901 117.942 181.125 116.52 182.763 116.52C184.401 116.52 185.607 117.942 185.607 119.634C185.607 121.362 184.401 122.802 182.763 122.802C181.125 122.802 179.901 121.362 179.901 119.634ZM189.109 120.372C189.109 122.568 189.685 124.008 192.079 124.008C193.573 124.008 194.347 123.252 194.653 122.928L194.815 123.45C194.869 123.666 194.959 123.81 195.193 123.81H195.481C195.679 123.81 195.859 123.63 195.859 123.414V115.89C195.859 115.692 195.679 115.494 195.481 115.494H194.923C194.707 115.494 194.545 115.692 194.545 115.89V121.596C194.167 122.028 193.429 122.802 192.187 122.802C190.981 122.802 190.441 122.046 190.441 120.39V115.89C190.441 115.692 190.261 115.494 190.045 115.494H189.505C189.271 115.494 189.109 115.692 189.109 115.89V120.372ZM198.674 123.414C198.674 123.63 198.854 123.81 199.07 123.81H199.61C199.808 123.81 200.006 123.63 200.006 123.414V117.654C200.006 117.654 200.654 116.592 202.256 116.592C202.652 116.592 202.958 116.736 203.156 116.826C203.354 116.916 203.552 116.898 203.642 116.628L203.876 115.98C204.074 115.404 203.048 115.314 202.418 115.314C200.69 115.314 199.862 116.376 199.862 116.376L199.718 115.782C199.664 115.584 199.52 115.494 199.358 115.494H199.07C198.854 115.494 198.674 115.692 198.674 115.89V123.414ZM209.537 123.414C209.537 123.63 209.717 123.81 209.933 123.81H210.473C210.671 123.81 210.869 123.63 210.869 123.414V117.654C210.869 117.654 211.517 116.592 213.119 116.592C213.515 116.592 213.821 116.736 214.019 116.826C214.217 116.916 214.415 116.898 214.505 116.628L214.739 115.98C214.937 115.404 213.911 115.314 213.281 115.314C211.553 115.314 210.725 116.376 210.725 116.376L210.581 115.782C210.527 115.584 210.383 115.494 210.221 115.494H209.933C209.717 115.494 209.537 115.692 209.537 115.89V123.414ZM215.695 119.652C215.695 122.028 217.207 124.008 219.727 124.008C221.167 124.008 222.265 123.45 222.769 123.054C223.075 122.82 223.003 122.73 222.841 122.478L222.625 122.172C222.409 121.848 222.283 121.92 221.995 122.118C221.527 122.424 220.843 122.802 219.745 122.802C218.233 122.802 217.062 121.344 217.027 119.958H223.075C223.255 119.958 223.435 119.814 223.453 119.598C223.471 119.454 223.489 119.238 223.489 119.094C223.489 116.916 221.905 115.314 219.727 115.314C217.207 115.314 215.695 117.312 215.695 119.652ZM217.045 118.896C217.207 117.6 218.323 116.52 219.727 116.52C221.149 116.52 222.121 117.672 222.157 118.896H217.045ZM226.988 123.324C226.988 123.324 227.906 124.008 229.292 124.008C231.578 124.008 233.216 122.082 233.216 119.652C233.216 117.276 231.614 115.314 229.346 115.314C227.852 115.314 226.844 116.16 226.844 116.16L226.718 115.764C226.628 115.548 226.574 115.494 226.376 115.494H226.07C225.854 115.494 225.674 115.692 225.674 115.89V127.698C225.674 127.914 225.854 128.094 226.07 128.094H226.592C226.79 128.094 226.988 127.914 226.988 127.698V123.324ZM226.988 122.082V117.528C226.988 117.528 227.852 116.52 229.184 116.52C230.858 116.52 231.866 118.014 231.866 119.634C231.866 121.452 230.696 122.802 229.094 122.802C227.942 122.802 226.988 122.082 226.988 122.082ZM234.96 119.634C234.96 122.01 236.832 124.008 239.136 124.008C241.44 124.008 243.312 122.01 243.312 119.634C243.312 117.294 241.44 115.314 239.136 115.314C236.832 115.314 234.96 117.294 234.96 119.634ZM236.274 119.634C236.274 117.942 237.498 116.52 239.136 116.52C240.774 116.52 241.98 117.942 241.98 119.634C241.98 121.362 240.774 122.802 239.136 122.802C237.498 122.802 236.274 121.362 236.274 119.634ZM245.572 123.414C245.572 123.63 245.752 123.81 245.968 123.81H246.508C246.706 123.81 246.904 123.63 246.904 123.414V117.654C246.904 117.654 247.552 116.592 249.154 116.592C249.55 116.592 249.856 116.736 250.054 116.826C250.252 116.916 250.45 116.898 250.54 116.628L250.774 115.98C250.972 115.404 249.946 115.314 249.316 115.314C247.588 115.314 246.76 116.376 246.76 116.376L246.616 115.782C246.562 115.584 246.418 115.494 246.256 115.494H245.968C245.752 115.494 245.572 115.692 245.572 115.89V123.414ZM253.055 116.646V121.704C253.055 123 253.379 124.008 254.963 124.008C256.079 124.008 256.943 123.594 257.303 123.342C257.519 123.198 257.555 123.072 257.447 122.802L257.285 122.424C257.195 122.226 257.087 122.064 256.763 122.262C256.421 122.478 255.899 122.802 255.125 122.802C254.657 122.802 254.387 122.478 254.387 121.614V116.646H256.835C257.069 116.646 257.249 116.466 257.249 116.25V115.89C257.249 115.656 257.069 115.494 256.835 115.494H254.387V113.154C254.387 112.938 254.225 112.74 254.009 112.758L253.451 112.794C253.253 112.812 253.055 112.974 253.055 113.19V115.494H251.957C251.705 115.494 251.543 115.656 251.543 115.89V116.25C251.543 116.466 251.705 116.646 251.957 116.646H253.055ZM261.658 124.008C263.35 124.008 264.484 122.946 264.484 121.632C264.484 120.12 263.242 119.58 261.802 118.914C260.794 118.446 260.218 118.176 260.218 117.438C260.218 117.042 260.524 116.52 261.442 116.52C262.216 116.52 262.792 116.79 263.152 117.006C263.332 117.114 263.602 117.096 263.728 116.862L263.908 116.52C264.034 116.286 263.998 116.106 263.818 115.962C263.422 115.674 262.522 115.314 261.442 115.314C259.516 115.314 258.868 116.628 258.868 117.492C258.868 118.914 260.128 119.508 261.226 120.048C262.432 120.642 263.08 120.966 263.08 121.758C263.08 122.406 262.504 122.802 261.658 122.802C260.596 122.802 259.876 122.28 259.588 122.064C259.354 121.902 259.21 121.974 259.102 122.172L258.85 122.64C258.778 122.784 258.814 122.91 258.904 123C259.336 123.396 260.272 124.008 261.658 124.008Z" fill="#232D38"/>
<path d="M36.464 173.468C36.464 173.648 36.608 173.81 36.806 173.81H37.508C37.688 173.81 37.85 173.648 37.85 173.468V167.726L42.242 161.732C42.386 161.498 42.242 161.21 41.954 161.21H41.108C40.982 161.21 40.874 161.3 40.82 161.372L37.184 166.394L33.548 161.372C33.494 161.3 33.386 161.21 33.26 161.21H32.414C32.126 161.21 31.982 161.498 32.126 161.732L36.464 167.744V173.468ZM41.3894 169.634C41.3894 172.01 43.2614 174.008 45.5654 174.008C47.8694 174.008 49.7414 172.01 49.7414 169.634C49.7414 167.294 47.8694 165.314 45.5654 165.314C43.2614 165.314 41.3894 167.294 41.3894 169.634ZM42.7034 169.634C42.7034 167.942 43.9274 166.52 45.5654 166.52C47.2034 166.52 48.4094 167.942 48.4094 169.634C48.4094 171.362 47.2034 172.802 45.5654 172.802C43.9274 172.802 42.7034 171.362 42.7034 169.634ZM51.9117 170.372C51.9117 172.568 52.4877 174.008 54.8817 174.008C56.3757 174.008 57.1497 173.252 57.4557 172.928L57.6177 173.45C57.6717 173.666 57.7617 173.81 57.9957 173.81H58.2837C58.4817 173.81 58.6617 173.63 58.6617 173.414V165.89C58.6617 165.692 58.4817 165.494 58.2837 165.494H57.7257C57.5097 165.494 57.3477 165.692 57.3477 165.89V171.596C56.9697 172.028 56.2317 172.802 54.9897 172.802C53.7837 172.802 53.2437 172.046 53.2437 170.39V165.89C53.2437 165.692 53.0637 165.494 52.8477 165.494H52.3077C52.0737 165.494 51.9117 165.692 51.9117 165.89V170.372ZM65.2605 169.67C65.2605 172.172 66.9885 174.008 69.4545 174.008C70.8405 174.008 71.9565 173.252 72.5865 172.334C72.7305 172.118 72.6585 171.938 72.4785 171.758L72.3705 171.65C72.1365 171.416 71.9025 171.344 71.6685 171.614C71.2005 172.154 70.6605 172.802 69.4005 172.802C67.8525 172.802 66.6105 171.416 66.6105 169.652C66.6105 167.924 67.8705 166.52 69.4545 166.52C70.3005 166.52 70.9665 166.772 71.5425 167.42C71.7045 167.6 71.8665 167.78 72.1365 167.546L72.4245 167.276C72.6225 167.114 72.6585 166.88 72.4965 166.682C71.7225 165.8 70.7145 165.314 69.4725 165.314C67.0605 165.314 65.2605 167.222 65.2605 169.67ZM74.1525 171.29C74.1525 172.964 75.2685 174.008 76.7265 174.008C78.0045 174.008 78.8685 173.378 79.3005 172.946L79.4625 173.504C79.5165 173.684 79.5885 173.81 79.8045 173.81H80.1465C80.3625 173.81 80.5425 173.63 80.5425 173.414V168.806C80.5425 166.358 80.0925 165.314 77.9685 165.314C76.6005 165.314 75.5205 165.674 75.1065 165.854C74.9085 165.944 74.7825 166.052 74.8545 166.304L75.0345 166.79C75.1065 166.988 75.2145 167.096 75.4305 167.006C75.8085 166.88 76.7625 166.52 77.8965 166.52C79.0845 166.52 79.2825 167.276 79.2645 168.806C79.2645 168.806 78.3645 168.536 77.4825 168.536C75.3405 168.536 74.1525 169.706 74.1525 171.29ZM75.4665 171.29C75.4665 170.228 76.3305 169.67 77.4825 169.67C78.3105 169.67 78.9765 169.85 79.2465 169.994V171.686C78.8865 172.226 77.9865 172.802 76.9605 172.802C76.0425 172.802 75.4665 172.136 75.4665 171.29ZM83.2731 173.414C83.2731 173.63 83.4531 173.81 83.6691 173.81H84.2091C84.4071 173.81 84.6051 173.63 84.6051 173.414V167.672C84.6051 167.672 85.5951 166.52 87.1611 166.52C88.3851 166.52 88.9251 167.258 88.9251 168.842V173.414C88.9251 173.63 89.1051 173.81 89.3211 173.81H89.8611C90.0591 173.81 90.2571 173.63 90.2571 173.414V169.022C90.2571 166.88 89.6631 165.314 87.2511 165.314C85.5231 165.314 84.4611 166.376 84.4611 166.376L84.2811 165.746C84.2451 165.566 84.1371 165.494 83.9571 165.494H83.6691C83.4531 165.494 83.2731 165.692 83.2731 165.89V173.414ZM96.7605 169.67C96.7605 172.172 98.4885 174.008 100.954 174.008C102.34 174.008 103.456 173.252 104.086 172.334C104.23 172.118 104.158 171.938 103.978 171.758L103.87 171.65C103.636 171.416 103.402 171.344 103.168 171.614C102.7 172.154 102.16 172.802 100.9 172.802C99.3525 172.802 98.1105 171.416 98.1105 169.652C98.1105 167.924 99.3705 166.52 100.954 166.52C101.8 166.52 102.466 166.772 103.042 167.42C103.204 167.6 103.366 167.78 103.636 167.546L103.924 167.276C104.122 167.114 104.158 166.88 103.996 166.682C103.222 165.8 102.214 165.314 100.972 165.314C98.5605 165.314 96.7605 167.222 96.7605 169.67ZM106.3 173.414C106.3 173.63 106.48 173.81 106.696 173.81H107.236C107.434 173.81 107.632 173.63 107.632 173.414V167.654C107.632 167.654 108.28 166.592 109.882 166.592C110.278 166.592 110.584 166.736 110.782 166.826C110.98 166.916 111.178 166.898 111.268 166.628L111.502 165.98C111.7 165.404 110.674 165.314 110.044 165.314C108.316 165.314 107.488 166.376 107.488 166.376L107.344 165.782C107.29 165.584 107.146 165.494 106.984 165.494H106.696C106.48 165.494 106.3 165.692 106.3 165.89V173.414ZM112.458 169.652C112.458 172.028 113.97 174.008 116.49 174.008C117.93 174.008 119.028 173.45 119.532 173.054C119.838 172.82 119.766 172.73 119.604 172.478L119.388 172.172C119.172 171.848 119.046 171.92 118.758 172.118C118.29 172.424 117.606 172.802 116.508 172.802C114.996 172.802 113.826 171.344 113.79 169.958H119.838C120.018 169.958 120.198 169.814 120.216 169.598C120.234 169.454 120.252 169.238 120.252 169.094C120.252 166.916 118.668 165.314 116.49 165.314C113.97 165.314 112.458 167.312 112.458 169.652ZM113.808 168.896C113.97 167.6 115.086 166.52 116.49 166.52C117.912 166.52 118.884 167.672 118.92 168.896H113.808ZM121.789 171.29C121.789 172.964 122.905 174.008 124.363 174.008C125.641 174.008 126.505 173.378 126.937 172.946L127.099 173.504C127.153 173.684 127.225 173.81 127.441 173.81H127.783C127.999 173.81 128.179 173.63 128.179 173.414V168.806C128.179 166.358 127.729 165.314 125.605 165.314C124.237 165.314 123.157 165.674 122.743 165.854C122.545 165.944 122.419 166.052 122.491 166.304L122.671 166.79C122.743 166.988 122.851 167.096 123.067 167.006C123.445 166.88 124.399 166.52 125.533 166.52C126.721 166.52 126.919 167.276 126.901 168.806C126.901 168.806 126.001 168.536 125.119 168.536C122.977 168.536 121.789 169.706 121.789 171.29ZM123.103 171.29C123.103 170.228 123.967 169.67 125.119 169.67C125.947 169.67 126.613 169.85 126.883 169.994V171.686C126.523 172.226 125.623 172.802 124.597 172.802C123.679 172.802 123.103 172.136 123.103 171.29ZM131.45 166.646V171.704C131.45 173 131.774 174.008 133.358 174.008C134.474 174.008 135.338 173.594 135.698 173.342C135.914 173.198 135.95 173.072 135.842 172.802L135.68 172.424C135.59 172.226 135.482 172.064 135.158 172.262C134.816 172.478 134.294 172.802 133.52 172.802C133.052 172.802 132.782 172.478 132.782 171.614V166.646H135.23C135.464 166.646 135.644 166.466 135.644 166.25V165.89C135.644 165.656 135.464 165.494 135.23 165.494H132.782V163.154C132.782 162.938 132.62 162.74 132.404 162.758L131.846 162.794C131.648 162.812 131.45 162.974 131.45 163.19V165.494H130.352C130.1 165.494 129.938 165.656 129.938 165.89V166.25C129.938 166.466 130.1 166.646 130.352 166.646H131.45ZM137.208 169.652C137.208 172.028 138.72 174.008 141.24 174.008C142.68 174.008 143.778 173.45 144.282 173.054C144.588 172.82 144.516 172.73 144.354 172.478L144.138 172.172C143.922 171.848 143.796 171.92 143.508 172.118C143.04 172.424 142.356 172.802 141.258 172.802C139.746 172.802 138.576 171.344 138.54 169.958H144.588C144.768 169.958 144.948 169.814 144.966 169.598C144.984 169.454 145.002 169.238 145.002 169.094C145.002 166.916 143.418 165.314 141.24 165.314C138.72 165.314 137.208 167.312 137.208 169.652ZM138.558 168.896C138.72 167.6 139.836 166.52 141.24 166.52C142.662 166.52 143.634 167.672 143.67 168.896H138.558ZM151.511 173.414C151.511 173.63 151.691 173.81 151.907 173.81H152.447C152.645 173.81 152.843 173.63 152.843 173.414V167.672C152.843 167.672 153.833 166.52 155.399 166.52C156.623 166.52 157.163 167.258 157.163 168.842V173.414C157.163 173.63 157.343 173.81 157.559 173.81H158.099C158.297 173.81 158.495 173.63 158.495 173.414V169.022C158.495 166.88 157.901 165.314 155.489 165.314C153.761 165.314 152.699 166.376 152.699 166.376L152.519 165.746C152.483 165.566 152.375 165.494 152.195 165.494H151.907C151.691 165.494 151.511 165.692 151.511 165.89V173.414ZM160.693 169.652C160.693 172.028 162.205 174.008 164.725 174.008C166.165 174.008 167.263 173.45 167.767 173.054C168.073 172.82 168.001 172.73 167.839 172.478L167.623 172.172C167.407 171.848 167.281 171.92 166.993 172.118C166.525 172.424 165.841 172.802 164.743 172.802C163.231 172.802 162.061 171.344 162.025 169.958H168.073C168.253 169.958 168.433 169.814 168.451 169.598C168.469 169.454 168.487 169.238 168.487 169.094C168.487 166.916 166.903 165.314 164.725 165.314C162.205 165.314 160.693 167.312 160.693 169.652ZM162.043 168.896C162.205 167.6 163.321 166.52 164.725 166.52C166.147 166.52 167.119 167.672 167.155 168.896H162.043ZM175.586 167.546L178.088 173.792C178.142 173.9 178.268 174.008 178.448 174.008H178.556C178.718 174.008 178.862 173.918 178.898 173.792L181.166 165.962C181.256 165.692 181.166 165.494 180.878 165.494H180.248C180.086 165.494 179.942 165.584 179.906 165.728L178.376 171.398H178.34L176.018 165.512C175.982 165.404 175.838 165.314 175.676 165.314H175.568C175.37 165.314 175.244 165.404 175.208 165.512L172.868 171.38H172.832L171.302 165.728C171.266 165.584 171.122 165.494 170.924 165.494H170.312C169.988 165.494 169.916 165.692 169.988 165.962L172.292 173.792C172.346 173.918 172.454 174.008 172.652 174.008H172.76C172.958 174.008 173.066 173.9 173.102 173.792L175.55 167.546H175.586ZM187.634 173.414C187.634 173.63 187.814 173.81 188.03 173.81H188.57C188.768 173.81 188.966 173.63 188.966 173.414V167.654C188.966 167.654 189.614 166.592 191.216 166.592C191.612 166.592 191.918 166.736 192.116 166.826C192.314 166.916 192.512 166.898 192.602 166.628L192.836 165.98C193.034 165.404 192.008 165.314 191.378 165.314C189.65 165.314 188.822 166.376 188.822 166.376L188.678 165.782C188.624 165.584 188.48 165.494 188.318 165.494H188.03C187.814 165.494 187.634 165.692 187.634 165.89V173.414ZM193.792 169.652C193.792 172.028 195.304 174.008 197.824 174.008C199.264 174.008 200.362 173.45 200.866 173.054C201.172 172.82 201.1 172.73 200.938 172.478L200.722 172.172C200.506 171.848 200.38 171.92 200.092 172.118C199.624 172.424 198.94 172.802 197.842 172.802C196.33 172.802 195.16 171.344 195.124 169.958H201.172C201.352 169.958 201.532 169.814 201.55 169.598C201.568 169.454 201.586 169.238 201.586 169.094C201.586 166.916 200.002 165.314 197.824 165.314C195.304 165.314 193.792 167.312 193.792 169.652ZM195.142 168.896C195.304 167.6 196.42 166.52 197.824 166.52C199.246 166.52 200.218 167.672 200.254 168.896H195.142ZM205.085 173.324C205.085 173.324 206.003 174.008 207.389 174.008C209.675 174.008 211.313 172.082 211.313 169.652C211.313 167.276 209.711 165.314 207.443 165.314C205.949 165.314 204.941 166.16 204.941 166.16L204.815 165.764C204.725 165.548 204.671 165.494 204.473 165.494H204.167C203.951 165.494 203.771 165.692 203.771 165.89V177.698C203.771 177.914 203.951 178.094 204.167 178.094H204.689C204.887 178.094 205.085 177.914 205.085 177.698V173.324ZM205.085 172.082V167.528C205.085 167.528 205.949 166.52 207.281 166.52C208.955 166.52 209.963 168.014 209.963 169.634C209.963 171.452 208.793 172.802 207.191 172.802C206.039 172.802 205.085 172.082 205.085 172.082ZM213.057 169.634C213.057 172.01 214.929 174.008 217.233 174.008C219.537 174.008 221.409 172.01 221.409 169.634C221.409 167.294 219.537 165.314 217.233 165.314C214.929 165.314 213.057 167.294 213.057 169.634ZM214.371 169.634C214.371 167.942 215.595 166.52 217.233 166.52C218.871 166.52 220.077 167.942 220.077 169.634C220.077 171.362 218.871 172.802 217.233 172.802C215.595 172.802 214.371 171.362 214.371 169.634ZM223.67 173.414C223.67 173.63 223.85 173.81 224.066 173.81H224.606C224.804 173.81 225.002 173.63 225.002 173.414V167.654C225.002 167.654 225.65 166.592 227.252 166.592C227.648 166.592 227.954 166.736 228.152 166.826C228.35 166.916 228.548 166.898 228.638 166.628L228.872 165.98C229.07 165.404 228.044 165.314 227.414 165.314C225.686 165.314 224.858 166.376 224.858 166.376L224.714 165.782C224.66 165.584 224.516 165.494 224.354 165.494H224.066C223.85 165.494 223.67 165.692 223.67 165.89V173.414ZM231.153 166.646V171.704C231.153 173 231.477 174.008 233.061 174.008C234.177 174.008 235.041 173.594 235.401 173.342C235.617 173.198 235.653 173.072 235.545 172.802L235.383 172.424C235.293 172.226 235.185 172.064 234.861 172.262C234.519 172.478 233.997 172.802 233.223 172.802C232.755 172.802 232.485 172.478 232.485 171.614V166.646H234.933C235.167 166.646 235.347 166.466 235.347 166.25V165.89C235.347 165.656 235.167 165.494 234.933 165.494H232.485V163.154C232.485 162.938 232.323 162.74 232.107 162.758L231.549 162.794C231.351 162.812 231.153 162.974 231.153 163.19V165.494H230.055C229.803 165.494 229.641 165.656 229.641 165.89V166.25C229.641 166.466 229.803 166.646 230.055 166.646H231.153ZM239.755 174.008C241.447 174.008 242.581 172.946 242.581 171.632C242.581 170.12 241.339 169.58 239.899 168.914C238.891 168.446 238.315 168.176 238.315 167.438C238.315 167.042 238.621 166.52 239.539 166.52C240.313 166.52 240.889 166.79 241.249 167.006C241.429 167.114 241.699 167.096 241.825 166.862L242.005 166.52C242.131 166.286 242.095 166.106 241.915 165.962C241.519 165.674 240.619 165.314 239.539 165.314C237.613 165.314 236.965 166.628 236.965 167.492C236.965 168.914 238.225 169.508 239.323 170.048C240.529 170.642 241.177 170.966 241.177 171.758C241.177 172.406 240.601 172.802 239.755 172.802C238.693 172.802 237.973 172.28 237.685 172.064C237.451 171.902 237.307 171.974 237.199 172.172L236.947 172.64C236.875 172.784 236.911 172.91 237.001 173C237.433 173.396 238.369 174.008 239.755 174.008ZM248.422 171.29C248.422 172.964 249.538 174.008 250.996 174.008C252.274 174.008 253.138 173.378 253.57 172.946L253.732 173.504C253.786 173.684 253.858 173.81 254.074 173.81H254.416C254.632 173.81 254.812 173.63 254.812 173.414V168.806C254.812 166.358 254.362 165.314 252.238 165.314C250.87 165.314 249.79 165.674 249.376 165.854C249.178 165.944 249.052 166.052 249.124 166.304L249.304 166.79C249.376 166.988 249.484 167.096 249.7 167.006C250.078 166.88 251.032 166.52 252.166 166.52C253.354 166.52 253.552 167.276 253.534 168.806C253.534 168.806 252.634 168.536 251.752 168.536C249.61 168.536 248.422 169.706 248.422 171.29ZM249.736 171.29C249.736 170.228 250.6 169.67 251.752 169.67C252.58 169.67 253.246 169.85 253.516 169.994V171.686C253.156 172.226 252.256 172.802 251.23 172.802C250.312 172.802 249.736 172.136 249.736 171.29ZM257.543 173.414C257.543 173.63 257.723 173.81 257.939 173.81H258.479C258.677 173.81 258.875 173.63 258.875 173.414V167.672C258.875 167.672 259.865 166.52 261.431 166.52C262.655 166.52 263.195 167.258 263.195 168.842V173.414C263.195 173.63 263.375 173.81 263.591 173.81H264.131C264.329 173.81 264.527 173.63 264.527 173.414V169.022C264.527 166.88 263.933 165.314 261.521 165.314C259.793 165.314 258.731 166.376 258.731 166.376L258.551 165.746C258.515 165.566 258.407 165.494 258.227 165.494H257.939C257.723 165.494 257.543 165.692 257.543 165.89V173.414ZM269.212 173.792L267.61 177.59C267.484 177.878 267.628 178.094 267.952 178.094H268.6C268.744 178.094 268.906 177.968 268.96 177.842L274.162 165.962C274.288 165.692 274.162 165.494 273.838 165.494H273.172C273.01 165.494 272.866 165.584 272.812 165.728L270.004 172.334H269.968L267.61 165.728C267.556 165.584 267.412 165.494 267.25 165.494H266.494C266.17 165.494 266.062 165.674 266.17 165.944L269.212 173.792ZM276.592 166.646V171.704C276.592 173 276.916 174.008 278.5 174.008C279.616 174.008 280.48 173.594 280.84 173.342C281.056 173.198 281.092 173.072 280.984 172.802L280.822 172.424C280.732 172.226 280.624 172.064 280.3 172.262C279.958 172.478 279.436 172.802 278.662 172.802C278.194 172.802 277.924 172.478 277.924 171.614V166.646H280.372C280.606 166.646 280.786 166.466 280.786 166.25V165.89C280.786 165.656 280.606 165.494 280.372 165.494H277.924V163.154C277.924 162.938 277.762 162.74 277.546 162.758L276.988 162.794C276.79 162.812 276.592 162.974 276.592 163.19V165.494H275.494C275.242 165.494 275.08 165.656 275.08 165.89V166.25C275.08 166.466 275.242 166.646 275.494 166.646H276.592ZM283.503 163.352C284.061 163.352 284.493 162.902 284.493 162.38C284.493 161.804 284.061 161.372 283.503 161.372C282.963 161.372 282.531 161.804 282.531 162.38C282.531 162.902 282.963 163.352 283.503 163.352ZM282.873 173.414C282.873 173.63 283.053 173.81 283.269 173.81H283.809C284.007 173.81 284.205 173.63 284.205 173.414V165.89C284.205 165.692 284.007 165.494 283.809 165.494H283.269C283.053 165.494 282.873 165.692 282.873 165.89V173.414ZM287.021 173.414C287.021 173.63 287.201 173.81 287.417 173.81H287.957C288.155 173.81 288.353 173.63 288.353 173.414V167.672C288.353 167.672 289.109 166.52 290.585 166.52C291.935 166.52 292.457 167.438 292.457 169.022V173.414C292.457 173.63 292.655 173.81 292.853 173.81H293.393C293.609 173.81 293.789 173.63 293.789 173.414V169.022C293.789 168.59 293.753 168.014 293.681 167.654C293.987 167.402 294.743 166.52 296.093 166.52C297.353 166.52 297.857 167.474 297.857 169.022V173.414C297.857 173.63 298.037 173.81 298.253 173.81H298.793C299.009 173.81 299.189 173.63 299.189 173.414V169.022C299.189 166.88 298.613 165.314 296.201 165.314C294.527 165.314 293.339 166.556 293.231 166.628C292.691 165.764 292.025 165.314 290.783 165.314C289.073 165.314 288.209 166.376 288.209 166.376L288.029 165.746C287.993 165.566 287.885 165.494 287.705 165.494H287.417C287.201 165.494 287.021 165.692 287.021 165.89V173.414ZM301.388 169.652C301.388 172.028 302.9 174.008 305.42 174.008C306.86 174.008 307.958 173.45 308.462 173.054C308.768 172.82 308.696 172.73 308.534 172.478L308.318 172.172C308.102 171.848 307.976 171.92 307.688 172.118C307.22 172.424 306.536 172.802 305.438 172.802C303.926 172.802 302.756 171.344 302.72 169.958H308.768C308.948 169.958 309.128 169.814 309.146 169.598C309.164 169.454 309.182 169.238 309.182 169.094C309.182 166.916 307.598 165.314 305.42 165.314C302.9 165.314 301.388 167.312 301.388 169.652ZM302.738 168.896C302.9 167.6 304.016 166.52 305.42 166.52C306.842 166.52 307.814 167.672 307.85 168.896H302.738ZM316.519 168.914H316.735C316.897 168.914 317.059 168.77 317.077 168.626L317.419 163.568V161.552C317.419 161.372 317.257 161.21 317.077 161.21H316.177C315.997 161.21 315.835 161.372 315.835 161.552V163.604L316.177 168.626C316.195 168.77 316.357 168.914 316.519 168.914ZM315.601 172.964C315.601 173.522 316.069 173.99 316.627 173.99C317.203 173.99 317.653 173.522 317.653 172.964C317.653 172.388 317.203 171.938 316.627 171.938C316.069 171.938 315.601 172.388 315.601 172.964Z" fill="#232D38"/>
<defs>
<clipPath id="clip0_276_56">
<rect width="266" height="196.582" fill="white" transform="translate(422)"/>
</clipPath>
</defs>
</svg>
